<svg xmlns="http://www.w3.org/2000/svg" xmlns:svg="http://www.w3.org/2000/svg" xmlns:xlink="http://www.w3.org/1999/xlink" version="1.0" height="790pt" width="1148pt" viewBox="245 87 1156 796" ><defs><style type="text/css">
            @font-face {
                font-family: 'lt_regular';
                src: url('https://app.creately.com/diagram/assets/fonts/lato/lt-regular-webfont.woff2') format('woff2'),
                    url('https://app.creately.com/diagram/assets/fonts/lato/lt-regular-webfont.woff') format('woff');
                font-weight: normal;
                font-style: normal;
            }
            @font-face {
                font-family: 'noto_regular';
                src: url('https://app.creately.com/diagram/assets/fonts/noto/noto-regular.woff') format('woff'),
                     url('https://app.creately.com/diagram/assets/fonts/noto/noto-regular.woff2') format('woff2');
                font-weight: normal;
                font-style: normal;
            }
        p {
            margin: 0;
        }
        </style></defs><defs><style>
            span{ display: inline-block; }
        </style></defs><g id="iVrjyJaFVS1"><g transform="translate(810 360)"><ellipse cx="50" cy="50" rx="50" ry="50" fill="rgb(54,150,147)" stroke="#369693" stroke-width="2" stroke-linecap="round" stroke-linejoin="round" stroke-dasharray="0 0"/></g><g transform="translate(830.5, 391.5) rotate(0, 29.5, 18.5)" width="59" height="37"><text text-decoration="none" x="11" fill="#ffffff" font-size="10pt" font-family="lt_regular"  y="14">Digital&#160;</text><text text-decoration="none" x="0" fill="#ffffff" font-size="10pt" font-family="lt_regular"  y="33">Marketing</text><text text-decoration="none" x="59" fill="#4b4b4b" font-size="10pt" font-family="noto_regular"  y="33"></text></g></g><g id="Xm6NjaBpHwa"><g transform="translate(1010.0000000000006 190.00000000000014)"><path d="M 19.999999999999996,39.99999999999999 L 19.999999999999996,39.99999999999999 L 19.999999999999996,39.99999999999999 A 19.999999999999996 19.999999999999996 0 0 1 0 20 L 0,19.999999999999996 L 0,20 A 19.999999999999996 19.999999999999996 0 0 1 19.999999999999996 0 L 109.99999999999997,0 L 109.99999999999997,0 L 109.99999999999997,0 A 19.999999999999996 19.999999999999996 0 0 1 129.99999999999997 19.999999999999996 L 129.99999999999997,19.999999999999996 L 129.99999999999997,19.999999999999996 A 19.999999999999996 19.999999999999996 0 0 1 109.99999999999997 39.99999999999999 L 19.999999999999996,39.99999999999999 Z" fill="rgb(241,181,122)" stroke="#f1b57a" stroke-width="2" stroke-linecap="round" stroke-linejoin="round" stroke-dasharray="0 0"/></g><g transform="translate(1038.5000000000005, 200.50000000000014) rotate(0, 36.5, 9.5)" width="73" height="19"><text text-decoration="none" x="1.5" fill="#ffffff" font-size="10pt" font-family="lt_regular"  y="15">Social&#160;</text><text text-decoration="none" x="36.5" fill="#ffffff" font-size="10pt" font-family="lt_regular"  y="15">Media</text><text text-decoration="none" x="71.5" fill="#4b4b4b" font-size="10pt" font-family="noto_regular"  y="15"></text></g></g><g id="G9UdBtnYbiQ"><g><path d="M 895,375 C 965.2085000000002,304.79149999999987 952.7085000000003,210.00000000000014 1010,210" fill="none" stroke="#7E7E7E" stroke-width="2" stroke-linecap="round" stroke-linejoin="round"/></g></g><g id="hwpUzIKNziO"><g transform="translate(1250 90)"><path d="M 19.999999999999996,39.99999999999999 L 19.999999999999996,39.99999999999999 L 19.999999999999996,39.99999999999999 A 19.999999999999996 19.999999999999996 0 0 1 0 20 L 0,19.999999999999996 L 0,20 A 19.999999999999996 19.999999999999996 0 0 1 19.999999999999996 0 L 79.99999999999997,0 L 79.99999999999997,0 L 79.99999999999997,0 A 19.999999999999996 19.999999999999996 0 0 1 99.99999999999997 19.999999999999996 L 99.99999999999997,19.999999999999996 L 99.99999999999997,19.999999999999996 A 19.999999999999996 19.999999999999996 0 0 1 79.99999999999997 39.99999999999999 L 19.999999999999996,39.99999999999999 Z" fill="rgb(242,215,164)" stroke="#f2d7a4" stroke-width="2" stroke-linecap="round" stroke-linejoin="round" stroke-dasharray="0 0"/></g><g transform="translate(1270.5, 100.5) rotate(0, 29.5, 9.5)" width="59" height="19"><text text-decoration="none" x="1" fill="#ffffff" font-size="10pt" font-family="lt_regular"  y="15">Facebook&#160;</text><text text-decoration="none" x="58" fill="#4b4b4b" font-size="10pt" font-family="noto_regular"  y="15"></text></g></g><g id="B03yHnvaQpK"><g><path d="M 1140,210 C 1195.0000000000002,210.00000000000014 1195.0000000000002,110 1250,110" fill="none" stroke="#7E7E7E" stroke-width="2" stroke-linecap="round" stroke-linejoin="round"/></g></g><g id="ODQSI3L7Tjb"><g transform="translate(1250 140)"><path d="M 19.999999999999996,39.99999999999999 L 19.999999999999996,39.99999999999999 L 19.999999999999996,39.99999999999999 A 19.999999999999996 19.999999999999996 0 0 1 0 20 L 0,19.999999999999996 L 0,20 A 19.999999999999996 19.999999999999996 0 0 1 19.999999999999996 0 L 79.99999999999997,0 L 79.99999999999997,0 L 79.99999999999997,0 A 19.999999999999996 19.999999999999996 0 0 1 99.99999999999997 19.999999999999996 L 99.99999999999997,19.999999999999996 L 99.99999999999997,19.999999999999996 A 19.999999999999996 19.999999999999996 0 0 1 79.99999999999997 39.99999999999999 L 19.999999999999996,39.99999999999999 Z" fill="rgb(242,215,164)" stroke="#f2d7a4" stroke-width="2" stroke-linecap="round" stroke-linejoin="round" stroke-dasharray="0 0"/></g><g transform="translate(1270, 150.5) rotate(0, 30, 9.5)" width="60" height="19"><text text-decoration="none" x="0" fill="#ffffff" font-size="10pt" font-family="lt_regular"  y="15">Instagram&#160;</text><text text-decoration="none" x="60" fill="#4b4b4b" font-size="10pt" font-family="noto_regular"  y="15"></text></g></g><g id="oGoBxi8qssd"><g><path d="M 1140,210 C 1195.0000000000002,210.00000000000014 1195.0000000000002,160 1250,160" fill="none" stroke="#7E7E7E" stroke-width="2" stroke-linecap="round" stroke-linejoin="round"/></g></g><g id="wcH9PKmd9xr"><g transform="translate(1250 190.00000000000014)"><path d="M 19.999999999999996,39.99999999999999 L 19.999999999999996,39.99999999999999 L 19.999999999999996,39.99999999999999 A 19.999999999999996 19.999999999999996 0 0 1 0 20 L 0,19.999999999999996 L 0,20 A 19.999999999999996 19.999999999999996 0 0 1 19.999999999999996 0 L 79.99999999999997,0 L 79.99999999999997,0 L 79.99999999999997,0 A 19.999999999999996 19.999999999999996 0 0 1 99.99999999999997 19.999999999999996 L 99.99999999999997,19.999999999999996 L 99.99999999999997,19.999999999999996 A 19.999999999999996 19.999999999999996 0 0 1 79.99999999999997 39.99999999999999 L 19.999999999999996,39.99999999999999 Z" fill="rgb(242,215,164)" stroke="#f2d7a4" stroke-width="2" stroke-linecap="round" stroke-linejoin="round" stroke-dasharray="0 0"/></g><g transform="translate(1275.5, 200.50000000000014) rotate(0, 24.5, 9.5)" width="49" height="19"><text text-decoration="none" x="0" fill="#ffffff" font-size="10pt" font-family="lt_regular"  y="15">LinkedIn</text><text text-decoration="none" x="49" fill="#4b4b4b" font-size="10pt" font-family="noto_regular"  y="15"></text></g></g><g id="x9U7CVKSAfo"><g><path d="M 1140,210 C 1195.0000000000002,210.00000000000014 1195.0000000000002,210.00000000000014 1250,210" fill="none" stroke="#7E7E7E" stroke-width="2" stroke-linecap="round" stroke-linejoin="round"/></g></g><g id="y85QSvLDFjy"><g transform="translate(1250 240)"><path d="M 19.999999999999996,39.99999999999999 L 19.999999999999996,39.99999999999999 L 19.999999999999996,39.99999999999999 A 19.999999999999996 19.999999999999996 0 0 1 0 20 L 0,19.999999999999996 L 0,20 A 19.999999999999996 19.999999999999996 0 0 1 19.999999999999996 0 L 79.99999999999997,0 L 79.99999999999997,0 L 79.99999999999997,0 A 19.999999999999996 19.999999999999996 0 0 1 99.99999999999997 19.999999999999996 L 99.99999999999997,19.999999999999996 L 99.99999999999997,19.999999999999996 A 19.999999999999996 19.999999999999996 0 0 1 79.99999999999997 39.99999999999999 L 19.999999999999996,39.99999999999999 Z" fill="rgb(242,215,164)" stroke="#f2d7a4" stroke-width="2" stroke-linecap="round" stroke-linejoin="round" stroke-dasharray="0 0"/></g><g transform="translate(1274, 250.5) rotate(0, 26, 9.5)" width="52" height="19"><text text-decoration="none" x="0" fill="#ffffff" font-size="10pt" font-family="lt_regular"  y="15">Pinterest</text><text text-decoration="none" x="53" fill="#4b4b4b" font-size="10pt" font-family="noto_regular"  y="15"></text></g></g><g id="L8y0uivfx88"><g><path d="M 1140,210 C 1195.0000000000002,210.00000000000014 1195.0000000000002,260 1250,260" fill="none" stroke="#7E7E7E" stroke-width="2" stroke-linecap="round" stroke-linejoin="round"/></g></g><g id="7RTGAbubI93"><g transform="translate(999.9999999999999 395.50842285156256)"><path d="M 19.999999999999996,39.99999999999999 L 19.999999999999996,39.99999999999999 L 19.999999999999996,39.99999999999999 A 19.999999999999996 19.999999999999996 0 0 1 0 20 L 0,19.999999999999996 L 0,20 A 19.999999999999996 19.999999999999996 0 0 1 19.999999999999996 0 L 109.99999999999912,0 L 109.99999999999912,0 L 109.99999999999912,0 A 19.999999999999996 19.999999999999996 0 0 1 129.99999999999912 19.999999999999996 L 129.99999999999912,19.999999999999996 L 129.99999999999912,19.999999999999996 A 19.999999999999996 19.999999999999996 0 0 1 109.99999999999912 39.99999999999999 L 19.999999999999996,39.99999999999999 Z" fill="rgb(206,102,100)" stroke="#ce6664" stroke-width="2" stroke-linecap="round" stroke-linejoin="round" stroke-dasharray="0 0"/></g><g transform="translate(1052.4999999999995, 406.00842285156256) rotate(0, 12.5, 9.5)" width="25" height="19"><text text-decoration="none" x="0" fill="#ffffff" font-size="10pt" font-family="lt_regular"  y="15">SEO</text><text text-decoration="none" x="25" fill="#4b4b4b" font-size="10pt" font-family="noto_regular"  y="15"></text></g></g><g id="CNvMtrpk4PA"><g><path d="M 910,410 C 960,410 949.9999999999999,415.50842285156256 1000,416" fill="none" stroke="#7E7E7E" stroke-width="2" stroke-linecap="round" stroke-linejoin="round"/></g></g><g id="61PckbDOrRC"><g transform="translate(1250 305.50842285156233)"><path d="M 19.999999999999996,39.99999999999999 L 19.999999999999996,39.99999999999999 L 19.999999999999996,39.99999999999999 A 19.999999999999996 19.999999999999996 0 0 1 0 20 L 0,19.999999999999996 L 0,20 A 19.999999999999996 19.999999999999996 0 0 1 19.999999999999996 0 L 79.99999999999997,0 L 79.99999999999997,0 L 79.99999999999997,0 A 19.999999999999996 19.999999999999996 0 0 1 99.99999999999997 19.999999999999996 L 99.99999999999997,19.999999999999996 L 99.99999999999997,19.999999999999996 A 19.999999999999996 19.999999999999996 0 0 1 79.99999999999997 39.99999999999999 L 19.999999999999996,39.99999999999999 Z" fill="rgb(222,132,106)" stroke="#de846a" stroke-width="2" stroke-linecap="round" stroke-linejoin="round" stroke-dasharray="0 0"/></g><g transform="translate(1263.5, 316.00842285156233) rotate(0, 36.5, 9.5)" width="73" height="19"><text text-decoration="none" x="1" fill="#ffffff" font-size="10pt" font-family="lt_regular"  y="15">Link&#160;</text><text text-decoration="none" x="28" fill="#ffffff" font-size="10pt" font-family="lt_regular"  y="15">building</text><text text-decoration="none" x="72" fill="#4b4b4b" font-size="10pt" font-family="noto_regular"  y="15"></text></g></g><g id="aOvUeq7fP82"><g><path d="M 1130,416 C 1189.9999999999995,415.50842285156256 1189.9999999999995,325.50842285156233 1250,326" fill="none" stroke="#7E7E7E" stroke-width="2" stroke-linecap="round" stroke-linejoin="round"/></g></g><g id="wr4MzR9K69Z"><g transform="translate(1250 355.50842285156244)"><path d="M 19.999999999999996,39.99999999999999 L 19.999999999999996,39.99999999999999 L 19.999999999999996,39.99999999999999 A 19.999999999999996 19.999999999999996 0 0 1 0 20 L 0,19.999999999999996 L 0,20 A 19.999999999999996 19.999999999999996 0 0 1 19.999999999999996 0 L 79.99999999999997,0 L 79.99999999999997,0 L 79.99999999999997,0 A 19.999999999999996 19.999999999999996 0 0 1 99.99999999999997 19.999999999999996 L 99.99999999999997,19.999999999999996 L 99.99999999999997,19.999999999999996 A 19.999999999999996 19.999999999999996 0 0 1 79.99999999999997 39.99999999999999 L 19.999999999999996,39.99999999999999 Z" fill="rgb(222,132,106)" stroke="#de846a" stroke-width="2" stroke-linecap="round" stroke-linejoin="round" stroke-dasharray="0 0"/></g><g transform="translate(1274.5, 366.00842285156244) rotate(0, 25.5, 9.5)" width="51" height="19"><text text-decoration="none" x="1" fill="#ffffff" font-size="10pt" font-family="lt_regular"  y="15">Blogging</text><text text-decoration="none" x="50" fill="#4b4b4b" font-size="10pt" font-family="noto_regular"  y="15"></text></g></g><g id="IhPdF9tmyjd"><g><path d="M 1130,416 C 1189.9999999999995,415.50842285156256 1189.9999999999995,375.50842285156244 1250,376" fill="none" stroke="#7E7E7E" stroke-width="2" stroke-linecap="round" stroke-linejoin="round"/></g></g><g id="Kdc5gaaLBgW"><g transform="translate(1250 405.50842285156233)"><path d="M 19.999999999999996,39.99999999999999 L 19.999999999999996,39.99999999999999 L 19.999999999999996,39.99999999999999 A 19.999999999999996 19.999999999999996 0 0 1 0 20 L 0,19.999999999999996 L 0,20 A 19.999999999999996 19.999999999999996 0 0 1 19.999999999999996 0 L 100,0 L 100,0 L 100,0 A 19.999999999999996 19.999999999999996 0 0 1 120 19.999999999999996 L 120,19.999999999999996 L 120,19.999999999999996 A 19.999999999999996 19.999999999999996 0 0 1 100 39.99999999999999 L 19.999999999999996,39.99999999999999 Z" fill="rgb(222,132,106)" stroke="#de846a" stroke-width="2" stroke-linecap="round" stroke-linejoin="round" stroke-dasharray="0 0"/></g><g transform="translate(1260, 416.00842285156233) rotate(0, 50, 9.5)" width="100" height="19"><text text-decoration="none" x="1" fill="#ffffff" font-size="10pt" font-family="lt_regular"  y="15">Webmaster&#160;</text><text text-decoration="none" x="71" fill="#ffffff" font-size="10pt" font-family="lt_regular"  y="15">tools</text><text text-decoration="none" x="99" fill="#4b4b4b" font-size="10pt" font-family="noto_regular"  y="15"></text></g></g><g id="MpJvvO2NT9O"><g><path d="M 1130,416 C 1189.9999999999995,415.50842285156256 1189.9999999999995,425.50842285156233 1250,426" fill="none" stroke="#7E7E7E" stroke-width="2" stroke-linecap="round" stroke-linejoin="round"/></g></g><g id="9GJ9R5YUxTd"><g transform="translate(1250 455.50842285156256)"><path d="M 19.999999999999996,39.99999999999999 L 19.999999999999996,39.99999999999999 L 19.999999999999996,39.99999999999999 A 19.999999999999996 19.999999999999996 0 0 1 0 20 L 0,19.999999999999996 L 0,20 A 19.999999999999996 19.999999999999996 0 0 1 19.999999999999996 0 L 91.00000000000001,0 L 91.00000000000001,0 L 91.00000000000001,0 A 19.999999999999996 19.999999999999996 0 0 1 111.00000000000001 19.999999999999996 L 111.00000000000001,19.999999999999996 L 111.00000000000001,19.999999999999996 A 19.999999999999996 19.999999999999996 0 0 1 91.00000000000001 39.99999999999999 L 19.999999999999996,39.99999999999999 Z" fill="rgb(222,132,106)" stroke="#de846a" stroke-width="2" stroke-linecap="round" stroke-linejoin="round" stroke-dasharray="0 0"/></g><g transform="translate(1260, 466.00842285156256) rotate(0, 45.5, 9.5)" width="91" height="19"><text text-decoration="none" x="1.5" fill="#ffffff" font-size="10pt" font-family="lt_regular"  y="15">Quality&#160;</text><text text-decoration="none" x="45.5" fill="#ffffff" font-size="10pt" font-family="lt_regular"  y="15">content</text><text text-decoration="none" x="89.5" fill="#4b4b4b" font-size="10pt" font-family="noto_regular"  y="15"></text></g></g><g id="IfaI4qhHJbq"><g><path d="M 1130,416 C 1189.9999999999995,415.50842285156256 1189.9999999999995,475.50842285156256 1250,476" fill="none" stroke="#7E7E7E" stroke-width="2" stroke-linecap="round" stroke-linejoin="round"/></g></g><g id="BjfTZD3qOak"><g transform="translate(1250 505.50842285156267)"><path d="M 19.999999999999996,39.99999999999999 L 19.999999999999996,39.99999999999999 L 19.999999999999996,39.99999999999999 A 19.999999999999996 19.999999999999996 0 0 1 0 20 L 0,19.999999999999996 L 0,20 A 19.999999999999996 19.999999999999996 0 0 1 19.999999999999996 0 L 128,0 L 128,0 L 128,0 A 19.999999999999996 19.999999999999996 0 0 1 148 19.999999999999996 L 148,19.999999999999996 L 148,19.999999999999996 A 19.999999999999996 19.999999999999996 0 0 1 128 39.99999999999999 L 19.999999999999996,39.99999999999999 Z" fill="rgb(222,132,106)" stroke="#de846a" stroke-width="2" stroke-linecap="round" stroke-linejoin="round" stroke-dasharray="0 0"/></g><g transform="translate(1260, 516.0084228515626) rotate(0, 64, 9.5)" width="128" height="19"><text text-decoration="none" x="1.5" fill="#ffffff" font-size="10pt" font-family="lt_regular"  y="15">Keyword&#160;</text><text text-decoration="none" x="56.5" fill="#ffffff" font-size="10pt" font-family="lt_regular"  y="15">optimization</text><text text-decoration="none" x="126.5" fill="#4b4b4b" font-size="10pt" font-family="noto_regular"  y="15"></text></g></g><g id="2cMD3riA1VD"><g><path d="M 1130,416 C 1189.9999999999995,415.50842285156256 1189.9999999999995,525.5084228515626 1250,526" fill="none" stroke="#7E7E7E" stroke-width="2" stroke-linecap="round" stroke-linejoin="round"/></g></g><g id="34w0hQD69Tu"><g transform="translate(1250 555.5084228515628)"><path d="M 19.999999999999996,39.99999999999999 L 19.999999999999996,39.99999999999999 L 19.999999999999996,39.99999999999999 A 19.999999999999996 19.999999999999996 0 0 1 0 20 L 0,19.999999999999996 L 0,20 A 19.999999999999996 19.999999999999996 0 0 1 19.999999999999996 0 L 124,0 L 124,0 L 124,0 A 19.999999999999996 19.999999999999996 0 0 1 144 19.999999999999996 L 144,19.999999999999996 L 144,19.999999999999996 A 19.999999999999996 19.999999999999996 0 0 1 124 39.99999999999999 L 19.999999999999996,39.99999999999999 Z" fill="rgb(222,132,106)" stroke="#de846a" stroke-width="2" stroke-linecap="round" stroke-linejoin="round" stroke-dasharray="0 0"/></g><g transform="translate(1260, 566.0084228515628) rotate(0, 62, 9.5)" width="124" height="19"><text text-decoration="none" x="1.5" fill="#ffffff" font-size="10pt" font-family="lt_regular"  y="15">Website&#160;</text><text text-decoration="none" x="52.5" fill="#ffffff" font-size="10pt" font-family="lt_regular"  y="15">optimization</text><text text-decoration="none" x="122.5" fill="#4b4b4b" font-size="10pt" font-family="noto_regular"  y="15"></text></g></g><g id="VB811bKeh0u"><g><path d="M 1130,416 C 1189.9999999999995,415.50842285156256 1189.9999999999995,575.5084228515628 1250,576" fill="none" stroke="#7E7E7E" stroke-width="2" stroke-linecap="round" stroke-linejoin="round"/></g></g><g id="Xbmjn2rPtgM"><g transform="translate(1000.0000000000006 705.508422851563)"><path d="M 19.999999999999996,39.99999999999999 L 19.999999999999996,39.99999999999999 L 19.999999999999996,39.99999999999999 A 19.999999999999996 19.999999999999996 0 0 1 0 20 L 0,19.999999999999996 L 0,20 A 19.999999999999996 19.999999999999996 0 0 1 19.999999999999996 0 L 93.99999999999999,0 L 93.99999999999999,0 L 93.99999999999999,0 A 19.999999999999996 19.999999999999996 0 0 1 113.99999999999999 19.999999999999996 L 113.99999999999999,19.999999999999996 L 113.99999999999999,19.999999999999996 A 19.999999999999996 19.999999999999996 0 0 1 93.99999999999999 39.99999999999999 L 19.999999999999996,39.99999999999999 Z" fill="rgb(65,90,95)" stroke="#415a5f" stroke-width="2" stroke-linecap="round" stroke-linejoin="round" stroke-dasharray="0 0"/></g><g transform="translate(1010.0000000000005, 716.008422851563) rotate(0, 47, 9.5)" width="94" height="19"><text text-decoration="none" x="0" fill="#ffffff" font-size="10pt" font-family="lt_regular"  y="15">Website&#160;</text><text text-decoration="none" x="51" fill="#ffffff" font-size="10pt" font-family="lt_regular"  y="15">Design&#160;</text><text text-decoration="none" x="94" fill="#4b4b4b" font-size="10pt" font-family="noto_regular"  y="15"></text></g></g><g id="65UcMBdSbMz"><g transform="translate(1250 615.508422851563)"><path d="M 19.999999999999996,39.99999999999999 L 19.999999999999996,39.99999999999999 L 19.999999999999996,39.99999999999999 A 19.999999999999996 19.999999999999996 0 0 1 0 20 L 0,19.999999999999996 L 0,20 A 19.999999999999996 19.999999999999996 0 0 1 19.999999999999996 0 L 80,0 L 80,0 L 80,0 A 19.999999999999996 19.999999999999996 0 0 1 100 19.999999999999996 L 100,19.999999999999996 L 100,19.999999999999996 A 19.999999999999996 19.999999999999996 0 0 1 80 39.99999999999999 L 19.999999999999996,39.99999999999999 Z" fill="rgb(54,150,147)" stroke="#369693" stroke-width="2" stroke-linecap="round" stroke-linejoin="round" stroke-dasharray="0 0"/></g><g transform="translate(1260, 626.008422851563) rotate(0, 40, 9.5)" width="80" height="19"><text text-decoration="none" x="1.5" fill="#ffffff" font-size="10pt" font-family="lt_regular"  y="15">Call-to-action</text><text text-decoration="none" x="78.5" fill="#4b4b4b" font-size="10pt" font-family="noto_regular"  y="15"></text></g></g><g id="P3Hl9eEaUlh"><g><path d="M 1114,726 C 1182.0000000000002,725.508422851563 1182.0000000000002,635.508422851563 1250,636" fill="none" stroke="#7E7E7E" stroke-width="2" stroke-linecap="round" stroke-linejoin="round"/></g></g><g id="QtQi5Of7rIn"><g transform="translate(1250 665.508422851563)"><path d="M 19.999999999999996,39.99999999999999 L 19.999999999999996,39.99999999999999 L 19.999999999999996,39.99999999999999 A 19.999999999999996 19.999999999999996 0 0 1 0 20 L 0,19.999999999999996 L 0,20 A 19.999999999999996 19.999999999999996 0 0 1 19.999999999999996 0 L 79.99999999999997,0 L 79.99999999999997,0 L 79.99999999999997,0 A 19.999999999999996 19.999999999999996 0 0 1 99.99999999999997 19.999999999999996 L 99.99999999999997,19.999999999999996 L 99.99999999999997,19.999999999999996 A 19.999999999999996 19.999999999999996 0 0 1 79.99999999999997 39.99999999999999 L 19.999999999999996,39.99999999999999 Z" fill="rgb(54,150,147)" stroke="#369693" stroke-width="2" stroke-linecap="round" stroke-linejoin="round" stroke-dasharray="0 0"/></g><g transform="translate(1269.5, 676.008422851563) rotate(0, 30.5, 9.5)" width="61" height="19"><text text-decoration="none" x="1" fill="#ffffff" font-size="10pt" font-family="lt_regular"  y="15">Sales&#160;</text><text text-decoration="none" x="33" fill="#ffffff" font-size="10pt" font-family="lt_regular"  y="15">copy</text><text text-decoration="none" x="60" fill="#4b4b4b" font-size="10pt" font-family="noto_regular"  y="15"></text></g></g><g id="XVsdbyUOMoA"><g><path d="M 1114,726 C 1182.0000000000002,725.508422851563 1182.0000000000002,685.508422851563 1250,686" fill="none" stroke="#7E7E7E" stroke-width="2" stroke-linecap="round" stroke-linejoin="round"/></g></g><g id="bfh8PGZQR2k"><g transform="translate(1250 715.5084228515631)"><path d="M 19.999999999999996,39.99999999999999 L 19.999999999999996,39.99999999999999 L 19.999999999999996,39.99999999999999 A 19.999999999999996 19.999999999999996 0 0 1 0 20 L 0,19.999999999999996 L 0,20 A 19.999999999999996 19.999999999999996 0 0 1 19.999999999999996 0 L 86,0 L 86,0 L 86,0 A 19.999999999999996 19.999999999999996 0 0 1 106 19.999999999999996 L 106,19.999999999999996 L 106,19.999999999999996 A 19.999999999999996 19.999999999999996 0 0 1 86 39.99999999999999 L 19.999999999999996,39.99999999999999 Z" fill="rgb(54,150,147)" stroke="#369693" stroke-width="2" stroke-linecap="round" stroke-linejoin="round" stroke-dasharray="0 0"/></g><g transform="translate(1260, 726.0084228515631) rotate(0, 43, 9.5)" width="86" height="19"><text text-decoration="none" x="1" fill="#ffffff" font-size="10pt" font-family="lt_regular"  y="15">Graphic&#160;</text><text text-decoration="none" x="48" fill="#ffffff" font-size="10pt" font-family="lt_regular"  y="15">design</text><text text-decoration="none" x="85" fill="#4b4b4b" font-size="10pt" font-family="noto_regular"  y="15"></text></g></g><g id="Fj5MR8eCWfk"><g><path d="M 1114,726 C 1182.0000000000002,725.508422851563 1182.0000000000002,735.5084228515631 1250,736" fill="none" stroke="#7E7E7E" stroke-width="2" stroke-linecap="round" stroke-linejoin="round"/></g></g><g id="MjO1OVUcKRe"><g transform="translate(1250 765.5084228515627)"><path d="M 19.999999999999996,39.99999999999999 L 19.999999999999996,39.99999999999999 L 19.999999999999996,39.99999999999999 A 19.999999999999996 19.999999999999996 0 0 1 0 20 L 0,19.999999999999996 L 0,20 A 19.999999999999996 19.999999999999996 0 0 1 19.999999999999996 0 L 79.99999999999997,0 L 79.99999999999997,0 L 79.99999999999997,0 A 19.999999999999996 19.999999999999996 0 0 1 99.99999999999997 19.999999999999996 L 99.99999999999997,19.999999999999996 L 99.99999999999997,19.999999999999996 A 19.999999999999996 19.999999999999996 0 0 1 79.99999999999997 39.99999999999999 L 19.999999999999996,39.99999999999999 Z" fill="rgb(54,150,147)" stroke="#369693" stroke-width="2" stroke-linecap="round" stroke-linejoin="round" stroke-dasharray="0 0"/></g><g transform="translate(1262, 776.0084228515627) rotate(0, 38, 9.5)" width="76" height="19"><text text-decoration="none" x="0" fill="#ffffff" font-size="10pt" font-family="lt_regular"  y="15">Usability&#160;</text><text text-decoration="none" x="53" fill="#ffffff" font-size="10pt" font-family="lt_regular"  y="15">test</text><text text-decoration="none" x="76" fill="#4b4b4b" font-size="10pt" font-family="noto_regular"  y="15"></text></g></g><g id="i3YxYhhdaOX"><g><path d="M 1114,726 C 1182.0000000000002,725.508422851563 1182.0000000000002,785.5084228515627 1250,786" fill="none" stroke="#7E7E7E" stroke-width="2" stroke-linecap="round" stroke-linejoin="round"/></g></g><g id="7gbsJmGUaF8"><g><path d="M 879,457 C 933.6776550662782,593.3768068788271 939.3750000000002,725.508422851563 1000,726" fill="none" stroke="#7E7E7E" stroke-width="2" stroke-linecap="round" stroke-linejoin="round"/></g></g><g id="xDFl3BeKpIU"><g transform="translate(1250 815.5084228515638)"><path d="M 19.999999999999996,39.99999999999999 L 19.999999999999996,39.99999999999999 L 19.999999999999996,39.99999999999999 A 19.999999999999996 19.999999999999996 0 0 1 0 20 L 0,19.999999999999996 L 0,20 A 19.999999999999996 19.999999999999996 0 0 1 19.999999999999996 0 L 79.99999999999997,0 L 79.99999999999997,0 L 79.99999999999997,0 A 19.999999999999996 19.999999999999996 0 0 1 99.99999999999997 19.999999999999996 L 99.99999999999997,19.999999999999996 L 99.99999999999997,19.999999999999996 A 19.999999999999996 19.999999999999996 0 0 1 79.99999999999997 39.99999999999999 L 19.999999999999996,39.99999999999999 Z" fill="rgb(54,150,147)" stroke="#369693" stroke-width="2" stroke-linecap="round" stroke-linejoin="round" stroke-dasharray="0 0"/></g><g transform="translate(1282, 826.0084228515638) rotate(0, 18, 9.5)" width="36" height="19"><text text-decoration="none" x="0" fill="#ffffff" font-size="10pt" font-family="lt_regular"  y="15">Forms</text><text text-decoration="none" x="36" fill="#4b4b4b" font-size="10pt" font-family="noto_regular"  y="15"></text></g></g><g id="SQgG23fneXy"><g><path d="M 1114,726 C 1182.0000000000002,725.508422851563 1182.0000000000002,835.5084228515638 1250,836" fill="none" stroke="#7E7E7E" stroke-width="2" stroke-linecap="round" stroke-linejoin="round"/></g></g><g id="mn9Ll06T0Zu"><g transform="translate(569.9999999999999 190)"><path d="M 19.999999999999996,39.99999999999999 L 19.999999999999996,39.99999999999999 L 19.999999999999996,39.99999999999999 A 19.999999999999996 19.999999999999996 0 0 1 0 20 L 0,19.999999999999996 L 0,20 A 19.999999999999996 19.999999999999996 0 0 1 19.999999999999996 0 L 113,0 L 113,0 L 113,0 A 19.999999999999996 19.999999999999996 0 0 1 133 19.999999999999996 L 133,19.999999999999996 L 133,19.999999999999996 A 19.999999999999996 19.999999999999996 0 0 1 113 39.99999999999999 L 19.999999999999996,39.99999999999999 Z" fill="rgb(206,102,100)" stroke="#ce6664" stroke-width="2" stroke-linecap="round" stroke-linejoin="round" stroke-dasharray="0 0"/></g><g transform="translate(579.9999999999999, 200.5) rotate(0, 56.5, 9.5)" width="113" height="19"><text text-decoration="none" x="0.5" fill="#ffffff" font-size="10pt" font-family="lt_regular"  y="15">Content&#160;</text><text text-decoration="none" x="50.5" fill="#ffffff" font-size="10pt" font-family="lt_regular"  y="15">Marketing&#160;</text><text text-decoration="none" x="112.5" fill="#4b4b4b" font-size="10pt" font-family="noto_regular"  y="15"></text></g></g><g id="a0YgcTab7cN"><g transform="translate(590 390.00000000000006)"><path d="M 19.999999999999996,39.99999999999999 L 19.999999999999996,39.99999999999999 L 19.999999999999996,39.99999999999999 A 19.999999999999996 19.999999999999996 0 0 1 0 20 L 0,19.999999999999996 L 0,20 A 19.999999999999996 19.999999999999996 0 0 1 19.999999999999996 0 L 92.00000000000001,0 L 92.00000000000001,0 L 92.00000000000001,0 A 19.999999999999996 19.999999999999996 0 0 1 112.00000000000001 19.999999999999996 L 112.00000000000001,19.999999999999996 L 112.00000000000001,19.999999999999996 A 19.999999999999996 19.999999999999996 0 0 1 92.00000000000001 39.99999999999999 L 19.999999999999996,39.99999999999999 Z" fill="rgb(65,90,95)" stroke="#415a5f" stroke-width="2" stroke-linecap="round" stroke-linejoin="round" stroke-dasharray="0 0"/></g><g transform="translate(600, 400.50000000000006) rotate(0, 46, 9.5)" width="92" height="19"><text text-decoration="none" x="0" fill="#ffffff" font-size="10pt" font-family="lt_regular"  y="15">Email&#160;</text><text text-decoration="none" x="34" fill="#ffffff" font-size="10pt" font-family="lt_regular"  y="15">marketing</text><text text-decoration="none" x="92" fill="#4b4b4b" font-size="10pt" font-family="noto_regular"  y="15"></text></g></g><g id="clUhwfpQEAH"><g transform="translate(569.9999999999999 520)"><path d="M 19.5,39 L 19.5,39 L 19.5,39 A 19.5 19.5 0 0 1 0 19.500000000000004 L 0,19.5 L 0,19.500000000000004 A 19.5 19.5 0 0 1 19.5 0 L 116.5,0 L 116.5,0 L 116.5,0 A 19.5 19.5 0 0 1 136 19.5 L 136,19.5 L 136,19.5 A 19.5 19.5 0 0 1 116.5 39 L 19.5,39 Z" fill="rgb(241,181,122)" stroke="#f1b57a" stroke-width="2" stroke-linecap="round" stroke-linejoin="round" stroke-dasharray="0 0"/></g><g transform="translate(579.9999999999999, 530) rotate(0, 58, 9.5)" width="116" height="19"><text text-decoration="none" x="1" fill="#ffffff" font-size="10pt" font-family="lt_regular"  y="15">Customer&#160;</text><text text-decoration="none" x="61" fill="#ffffff" font-size="10pt" font-family="lt_regular"  y="15">Feedback</text><text text-decoration="none" x="115" fill="#4b4b4b" font-size="10pt" font-family="noto_regular"  y="15"></text></g></g><g id="KNmKNhEVR80"><g><path d="M 825,375 C 753.0414999999999,303.0415 763.7914999999999,210 703,210" fill="none" stroke="#7E7E7E" stroke-width="2" stroke-linecap="round" stroke-linejoin="round"/></g></g><g id="aajDSBV2lGu"><g transform="translate(386 90)"><path d="M 19.999999999999996,39.99999999999999 L 19.999999999999996,39.99999999999999 L 19.999999999999996,39.99999999999999 A 19.999999999999996 19.999999999999996 0 0 1 0 20 L 0,19.999999999999996 L 0,20 A 19.999999999999996 19.999999999999996 0 0 1 19.999999999999996 0 L 104,0 L 104,0 L 104,0 A 19.999999999999996 19.999999999999996 0 0 1 124 19.999999999999996 L 124,19.999999999999996 L 124,19.999999999999996 A 19.999999999999996 19.999999999999996 0 0 1 104 39.99999999999999 L 19.999999999999996,39.99999999999999 Z" fill="rgb(222,132,106)" stroke="#de846a" stroke-width="2" stroke-linecap="round" stroke-linejoin="round" stroke-dasharray="0 0"/></g><g transform="translate(396, 100.5) rotate(0, 52, 9.5)" width="104" height="19"><text text-decoration="none" x="0" fill="#ffffff" font-size="10pt" font-family="lt_regular"  y="15">Keyword&#160;</text><text text-decoration="none" x="55" fill="#ffffff" font-size="10pt" font-family="lt_regular"  y="15">research</text><text text-decoration="none" x="104" fill="#4b4b4b" font-size="10pt" font-family="noto_regular"  y="15"></text></g></g><g id="y617xASyjvw"><g><path d="M 570,210 C 519.9999999999999,210 560,110 510,110" fill="none" stroke="#7E7E7E" stroke-width="2" stroke-linecap="round" stroke-linejoin="round"/></g></g><g id="nBwkxdToEby"><g transform="translate(410 139.99999999999997)"><path d="M 19.999999999999996,39.99999999999999 L 19.999999999999996,39.99999999999999 L 19.999999999999996,39.99999999999999 A 19.999999999999996 19.999999999999996 0 0 1 0 20 L 0,19.999999999999996 L 0,20 A 19.999999999999996 19.999999999999996 0 0 1 19.999999999999996 0 L 79.99999999999997,0 L 79.99999999999997,0 L 79.99999999999997,0 A 19.999999999999996 19.999999999999996 0 0 1 99.99999999999997 19.999999999999996 L 99.99999999999997,19.999999999999996 L 99.99999999999997,19.999999999999996 A 19.999999999999996 19.999999999999996 0 0 1 79.99999999999997 39.99999999999999 L 19.999999999999996,39.99999999999999 Z" fill="rgb(222,132,106)" stroke="#de846a" stroke-width="2" stroke-linecap="round" stroke-linejoin="round" stroke-dasharray="0 0"/></g><g transform="translate(435, 150.49999999999997) rotate(0, 25, 9.5)" width="50" height="19"><text text-decoration="none" x="0" fill="#ffffff" font-size="10pt" font-family="lt_regular"  y="15">Tutorials</text><text text-decoration="none" x="50" fill="#4b4b4b" font-size="10pt" font-family="noto_regular"  y="15"></text></g></g><g id="8xl9ICR5CEv"><g><path d="M 570,210 C 519.9999999999999,210 560,159.99999999999997 510,160" fill="none" stroke="#7E7E7E" stroke-width="2" stroke-linecap="round" stroke-linejoin="round"/></g></g><g id="epbMoCG1kbF"><g transform="translate(389 190)"><path d="M 19.999999999999996,39.99999999999999 L 19.999999999999996,39.99999999999999 L 19.999999999999996,39.99999999999999 A 19.999999999999996 19.999999999999996 0 0 1 0 20 L 0,19.999999999999996 L 0,20 A 19.999999999999996 19.999999999999996 0 0 1 19.999999999999996 0 L 101,0 L 101,0 L 101,0 A 19.999999999999996 19.999999999999996 0 0 1 121 19.999999999999996 L 121,19.999999999999996 L 121,19.999999999999996 A 19.999999999999996 19.999999999999996 0 0 1 101 39.99999999999999 L 19.999999999999996,39.99999999999999 Z" fill="rgb(222,132,106)" stroke="#de846a" stroke-width="2" stroke-linecap="round" stroke-linejoin="round" stroke-dasharray="0 0"/></g><g transform="translate(399, 200.5) rotate(0, 50.5, 9.5)" width="101" height="19"><text text-decoration="none" x="1.5" fill="#ffffff" font-size="10pt" font-family="lt_regular"  y="15">SEO&#160;</text><text text-decoration="none" x="29.5" fill="#ffffff" font-size="10pt" font-family="lt_regular"  y="15">optimization</text><text text-decoration="none" x="99.5" fill="#4b4b4b" font-size="10pt" font-family="noto_regular"  y="15"></text></g></g><g id="ECLuVMttktW"><g><path d="M 570,210 C 519.9999999999999,210 560,210 510,210" fill="none" stroke="#7E7E7E" stroke-width="2" stroke-linecap="round" stroke-linejoin="round"/></g></g><g id="wwhW1Tg72aT"><g transform="translate(396 240.00000000000009)"><path d="M 19.999999999999996,39.99999999999999 L 19.999999999999996,39.99999999999999 L 19.999999999999996,39.99999999999999 A 19.999999999999996 19.999999999999996 0 0 1 0 20 L 0,19.999999999999996 L 0,20 A 19.999999999999996 19.999999999999996 0 0 1 19.999999999999996 0 L 93.99999999999999,0 L 93.99999999999999,0 L 93.99999999999999,0 A 19.999999999999996 19.999999999999996 0 0 1 113.99999999999999 19.999999999999996 L 113.99999999999999,19.999999999999996 L 113.99999999999999,19.999999999999996 A 19.999999999999996 19.999999999999996 0 0 1 93.99999999999999 39.99999999999999 L 19.999999999999996,39.99999999999999 Z" fill="rgb(222,132,106)" stroke="#de846a" stroke-width="2" stroke-linecap="round" stroke-linejoin="round" stroke-dasharray="0 0"/></g><g transform="translate(406, 250.50000000000006) rotate(0, 47, 9.5)" width="94" height="19"><text text-decoration="none" x="0.5" fill="#ffffff" font-size="10pt" font-family="lt_regular"  y="15">Product&#160;</text><text text-decoration="none" x="48.5" fill="#ffffff" font-size="10pt" font-family="lt_regular"  y="15">reviews</text><text text-decoration="none" x="93.5" fill="#4b4b4b" font-size="10pt" font-family="noto_regular"  y="15"></text></g></g><g id="osAwAbfRZhZ"><g><path d="M 570,210 C 519.9999999999999,210 560,260.00000000000006 510,260" fill="none" stroke="#7E7E7E" stroke-width="2" stroke-linecap="round" stroke-linejoin="round"/></g></g><g id="qHuJuwfqskE"><g><path d="M 810,410 C 756,410 756,410.00000000000006 702,410" fill="none" stroke="#7E7E7E" stroke-width="2" stroke-linecap="round" stroke-linejoin="round"/></g></g><g id="gLg4STJ0ckv"><g><path d="M 825,445 C 771.4164999999999,498.5835000000001 765.2914999999999,539.5 706,540" fill="none" stroke="#7E7E7E" stroke-width="2" stroke-linecap="round" stroke-linejoin="round"/></g></g><g id="53WTJcqT2s8"><g transform="translate(410 320.00000000000006)"><path d="M 20,40 L 20,40 L 20,40 A 20 20 0 0 1 0 20.000000000000004 L 0,20 L 0,20.000000000000004 A 20 20 0 0 1 20 0 L 80,0 L 80,0 L 80,0 A 20 20 0 0 1 100 20 L 100,20 L 100,20 A 20 20 0 0 1 80 40 L 20,40 Z" fill="rgb(54,150,147)" stroke="#369693" stroke-width="2" stroke-linecap="round" stroke-linejoin="round" stroke-dasharray="0 0"/></g><g transform="translate(425, 330.50000000000006) rotate(0, 35, 9.5)" width="70" height="19"><text text-decoration="none" x="0" fill="#ffffff" font-size="10pt" font-family="lt_regular"  y="15">Newsletters</text><text text-decoration="none" x="71" fill="#4b4b4b" font-size="10pt" font-family="noto_regular"  y="15"></text></g></g><g id="ubtzCtKPOs2"><g><path d="M 590,410 C 540,410.00000000000006 560,340.00000000000006 510,340" fill="none" stroke="#7E7E7E" stroke-width="2" stroke-linecap="round" stroke-linejoin="round"/></g></g><g id="tjanz4gvnNU"><g transform="translate(370 370)"><path d="M 20,40 L 20,40 L 20,40 A 20 20 0 0 1 0 20.000000000000004 L 0,20 L 0,20.000000000000004 A 20 20 0 0 1 20 0 L 120,0 L 120,0 L 120,0 A 20 20 0 0 1 140 20 L 140,20 L 140,20 A 20 20 0 0 1 120 40 L 20,40 Z" fill="rgb(54,150,147)" stroke="#369693" stroke-width="2" stroke-linecap="round" stroke-linejoin="round" stroke-dasharray="0 0"/></g><g transform="translate(380, 380.5) rotate(0, 60, 9.5)" width="120" height="19"><text text-decoration="none" x="2" fill="#ffffff" font-size="10pt" font-family="lt_regular"  y="15">Relationship&#160;</text><text text-decoration="none" x="74" fill="#ffffff" font-size="10pt" font-family="lt_regular"  y="15">building</text><text text-decoration="none" x="118" fill="#4b4b4b" font-size="10pt" font-family="noto_regular"  y="15"></text></g></g><g id="T2gZMCtxTVn"><g><path d="M 590,410 C 540,410.00000000000006 560,390 510,390" fill="none" stroke="#7E7E7E" stroke-width="2" stroke-linecap="round" stroke-linejoin="round"/></g></g><g id="oQ5VSu3xf7j"><g transform="translate(403 420)"><path d="M 20,40 L 20,40 L 20,40 A 20 20 0 0 1 0 20.000000000000004 L 0,20 L 0,20.000000000000004 A 20 20 0 0 1 20 0 L 87,0 L 87,0 L 87,0 A 20 20 0 0 1 107 20 L 107,20 L 107,20 A 20 20 0 0 1 87 40 L 20,40 Z" fill="rgb(54,150,147)" stroke="#369693" stroke-width="2" stroke-linecap="round" stroke-linejoin="round" stroke-dasharray="0 0"/></g><g transform="translate(413, 430.5) rotate(0, 43.5, 9.5)" width="87" height="19"><text text-decoration="none" x="1.5" fill="#ffffff" font-size="10pt" font-family="lt_regular"  y="15">Sales&#160;</text><text text-decoration="none" x="33.5" fill="#ffffff" font-size="10pt" font-family="lt_regular"  y="15">follow&#160;</text><text text-decoration="none" x="71.5" fill="#ffffff" font-size="10pt" font-family="lt_regular"  y="15">up</text><text text-decoration="none" x="85.5" fill="#4b4b4b" font-size="10pt" font-family="noto_regular"  y="15"></text></g></g><g id="EwNC6X84sjz"><g><path d="M 590,410 C 540,410.00000000000006 560,440 510,440" fill="none" stroke="#7E7E7E" stroke-width="2" stroke-linecap="round" stroke-linejoin="round"/></g></g><g id="rCry36j49Ds"><g transform="translate(400 490)"><path d="M 20,40 L 20,40 L 20,40 A 20 20 0 0 1 0 20.000000000000004 L 0,20 L 0,20.000000000000004 A 20 20 0 0 1 20 0 L 90.00000000000001,0 L 90.00000000000001,0 L 90.00000000000001,0 A 20 20 0 0 1 110.00000000000001 20 L 110.00000000000001,20 L 110.00000000000001,20 A 20 20 0 0 1 90.00000000000001 40 L 20,40 Z" fill="rgb(242,215,164)" stroke="#f2d7a4" stroke-width="2" stroke-linecap="round" stroke-linejoin="round" stroke-dasharray="0 0"/></g><g transform="translate(410, 500.5) rotate(0, 45, 9.5)" width="90" height="19"><text text-decoration="none" x="1" fill="#ffffff" font-size="10pt" font-family="lt_regular"  y="15">Blog&#160;</text><text text-decoration="none" x="29" fill="#ffffff" font-size="10pt" font-family="lt_regular"  y="15">comments</text><text text-decoration="none" x="89" fill="#4b4b4b" font-size="10pt" font-family="noto_regular"  y="15"></text></g></g><g id="NelaViSpbe0"><g><path d="M 570,540 C 519.9999999999999,539.5 560,510 510,510" fill="none" stroke="#7E7E7E" stroke-width="2" stroke-linecap="round" stroke-linejoin="round"/></g></g><g id="mwtV1gscuM7"><g transform="translate(410 550)"><path d="M 20,40 L 20,40 L 20,40 A 20 20 0 0 1 0 20.000000000000004 L 0,20 L 0,20.000000000000004 A 20 20 0 0 1 20 0 L 80,0 L 80,0 L 80,0 A 20 20 0 0 1 100 20 L 100,20 L 100,20 A 20 20 0 0 1 80 40 L 20,40 Z" fill="rgb(242,215,164)" stroke="#f2d7a4" stroke-width="2" stroke-linecap="round" stroke-linejoin="round" stroke-dasharray="0 0"/></g><g transform="translate(446.5, 560.5) rotate(0, 13.5, 9.5)" width="27" height="19"><text text-decoration="none" x="0" fill="#ffffff" font-size="10pt" font-family="lt_regular"  y="15">Polls</text><text text-decoration="none" x="27" fill="#4b4b4b" font-size="10pt" font-family="noto_regular"  y="15"></text></g></g><g id="BWsfWa6PywD"><g><path d="M 570,540 C 519.9999999999999,539.5 560,570 510,570" fill="none" stroke="#7E7E7E" stroke-width="2" stroke-linecap="round" stroke-linejoin="round"/></g></g><g id="vSwufXWYMQW"><g transform="translate(610 700)"><path d="M 20,40 L 20,40 L 20,40 A 20 20 0 0 1 0 20.000000000000004 L 0,20 L 0,20.000000000000004 A 20 20 0 0 1 20 0 L 107,0 L 107,0 L 107,0 A 20 20 0 0 1 127 20 L 127,20 L 127,20 A 20 20 0 0 1 107 40 L 20,40 Z" fill="rgb(142,179,155)" stroke="#8eb39b" stroke-width="2" stroke-linecap="round" stroke-linejoin="round" stroke-dasharray="0 0"/></g><g transform="translate(620, 710.5) rotate(0, 53.5, 9.5)" width="107" height="19"><text text-decoration="none" x="0" fill="#ffffff" font-size="10pt" font-family="lt_regular"  y="15">Testing&#160;</text><text text-decoration="none" x="46" fill="#ffffff" font-size="10pt" font-family="lt_regular"  y="15">&#x26;&#160;</text><text text-decoration="none" x="58" fill="#ffffff" font-size="10pt" font-family="lt_regular"  y="15">Tracking&#160;</text><text text-decoration="none" x="110" fill="#4b4b4b" font-size="10pt" font-family="noto_regular"  y="15"></text></g></g><g id="Wf95LOjYZOi"><g><path d="M 737,720 C 789.125,720 788.4565643231149,588.0649340124372 841,457" fill="none" stroke="#7E7E7E" stroke-width="2" stroke-linecap="round" stroke-linejoin="round"/></g></g><g id="BMNIua93osV"><g transform="translate(410 610)"><path d="M 20,40 L 20,40 L 20,40 A 20 20 0 0 1 0 20.000000000000004 L 0,20 L 0,20.000000000000004 A 20 20 0 0 1 20 0 L 80,0 L 80,0 L 80,0 A 20 20 0 0 1 100 20 L 100,20 L 100,20 A 20 20 0 0 1 80 40 L 20,40 Z" fill="rgb(150,209,171)" stroke="#96d1ab" stroke-width="2" stroke-linecap="round" stroke-linejoin="round" stroke-dasharray="0 0"/></g><g transform="translate(433.5, 620.5) rotate(0, 26.5, 9.5)" width="53" height="19"><text text-decoration="none" x="0.5" fill="#ffffff" font-size="10pt" font-family="lt_regular"  y="15">Analytics</text><text text-decoration="none" x="52.5" fill="#4b4b4b" font-size="10pt" font-family="noto_regular"  y="15"></text></g></g><g id="EuzwCeMlZcA"><g><path d="M 610,720 C 560,720 560,630 510,630" fill="none" stroke="#7E7E7E" stroke-width="2" stroke-linecap="round" stroke-linejoin="round"/></g></g><g id="D5yR87770Fg"><g transform="translate(409.9999999999999 660)"><path d="M 20,40 L 20,40 L 20,40 A 20 20 0 0 1 0 20.000000000000004 L 0,20 L 0,20.000000000000004 A 20 20 0 0 1 20 0 L 80,0 L 80,0 L 80,0 A 20 20 0 0 1 100 20 L 100,20 L 100,20 A 20 20 0 0 1 80 40 L 20,40 Z" fill="rgb(150,209,171)" stroke="#96d1ab" stroke-width="2" stroke-linecap="round" stroke-linejoin="round" stroke-dasharray="0 0"/></g><g transform="translate(435.9999999999999, 670.5) rotate(0, 24, 9.5)" width="48" height="19"><text text-decoration="none" x="0" fill="#ffffff" font-size="10pt" font-family="lt_regular"  y="15">Tracking</text><text text-decoration="none" x="49" fill="#4b4b4b" font-size="10pt" font-family="noto_regular"  y="15"></text></g></g><g id="kanauUmz5rb"><g><path d="M 610,720 C 560,720 560,680 510,680" fill="none" stroke="#7E7E7E" stroke-width="2" stroke-linecap="round" stroke-linejoin="round"/></g></g><g id="Ai5sXz5dybY"><g transform="translate(250 640)"><path d="M 20,40 L 20,40 L 20,40 A 20 20 0 0 1 0 20.000000000000004 L 0,20 L 0,20.000000000000004 A 20 20 0 0 1 20 0 L 80,0 L 80,0 L 80,0 A 20 20 0 0 1 100 20 L 100,20 L 100,20 A 20 20 0 0 1 80 40 L 20,40 Z" fill="rgb(150,209,171)" stroke="#96d1ab" stroke-width="2" stroke-linecap="round" stroke-linejoin="round" stroke-dasharray="0 0"/></g><g transform="translate(264, 650.5) rotate(0, 36, 9.5)" width="72" height="19"><text text-decoration="none" x="0.5" fill="#ffffff" font-size="10pt" font-family="lt_regular"  y="15">Conversions</text><text text-decoration="none" x="71.5" fill="#4b4b4b" font-size="10pt" font-family="noto_regular"  y="15"></text></g></g><g id="Jy5xGzunwUd"><g><path d="M 410,680 C 359.9999999999999,680 400,660 350,660" fill="none" stroke="#7E7E7E" stroke-width="2" stroke-linecap="round" stroke-linejoin="round"/></g></g><g id="uZzijjE8idK"><g transform="translate(250 690)"><path d="M 20,40 L 20,40 L 20,40 A 20 20 0 0 1 0 20.000000000000004 L 0,20 L 0,20.000000000000004 A 20 20 0 0 1 20 0 L 83,0 L 83,0 L 83,0 A 20 20 0 0 1 103 20 L 103,20 L 103,20 A 20 20 0 0 1 83 40 L 20,40 Z" fill="rgb(150,209,171)" stroke="#96d1ab" stroke-width="2" stroke-linecap="round" stroke-linejoin="round" stroke-dasharray="0 0"/></g><g transform="translate(260, 700.5) rotate(0, 41.5, 9.5)" width="83" height="19"><text text-decoration="none" x="23" fill="#ffffff" font-size="10pt" font-family="lt_regular"  y="14">Traffic&#160;</text><text text-decoration="none" x="19.5" fill="#ffffff" font-size="10pt" font-family="lt_regular"  y="33">sources</text><text text-decoration="none" x="63.5" fill="#4b4b4b" font-size="10pt" font-family="noto_regular"  y="33"></text></g></g><g id="47UxyvRkRTp"><g><path d="M 410,680 C 359.9999999999999,680 403,710 353,710" fill="none" stroke="#7E7E7E" stroke-width="2" stroke-linecap="round" stroke-linejoin="round"/></g></g><g id="RNdiswI0YIV"><g transform="translate(410 790)"><path d="M 20,40 L 20,40 L 20,40 A 20 20 0 0 1 0 20.000000000000004 L 0,20 L 0,20.000000000000004 A 20 20 0 0 1 20 0 L 80,0 L 80,0 L 80,0 A 20 20 0 0 1 100 20 L 100,20 L 100,20 A 20 20 0 0 1 80 40 L 20,40 Z" fill="rgb(150,209,171)" stroke="#96d1ab" stroke-width="2" stroke-linecap="round" stroke-linejoin="round" stroke-dasharray="0 0"/></g><g transform="translate(439.5, 800.5) rotate(0, 20.5, 9.5)" width="41" height="19"><text text-decoration="none" x="0" fill="#ffffff" font-size="10pt" font-family="lt_regular"  y="15">Testing</text><text text-decoration="none" x="43" fill="#4b4b4b" font-size="10pt" font-family="noto_regular"  y="15"></text></g></g><g id="u3kEfSaIvT2"><g><path d="M 610,720 C 560,720 560,810 510,810" fill="none" stroke="#7E7E7E" stroke-width="2" stroke-linecap="round" stroke-linejoin="round"/></g></g><g id="5fAD7Nyv4aG"><g transform="translate(250 740)"><path d="M 20,40 L 20,40 L 20,40 A 20 20 0 0 1 0 20.000000000000004 L 0,20 L 0,20.000000000000004 A 20 20 0 0 1 20 0 L 80,0 L 80,0 L 80,0 A 20 20 0 0 1 100 20 L 100,20 L 100,20 A 20 20 0 0 1 80 40 L 20,40 Z" fill="rgb(150,209,171)" stroke="#96d1ab" stroke-width="2" stroke-linecap="round" stroke-linejoin="round" stroke-dasharray="0 0"/></g><g transform="translate(266.5, 750.5) rotate(0, 33.5, 9.5)" width="67" height="19"><text text-decoration="none" x="0.5" fill="#ffffff" font-size="10pt" font-family="lt_regular"  y="15">A/B&#160;</text><text text-decoration="none" x="26.5" fill="#ffffff" font-size="10pt" font-family="lt_regular"  y="15">testing</text><text text-decoration="none" x="66.5" fill="#4b4b4b" font-size="10pt" font-family="noto_regular"  y="15"></text></g></g><g id="q6U49VdeBt0"><g><path d="M 410,810 C 360,810 400,760 350,760" fill="none" stroke="#7E7E7E" stroke-width="2" stroke-linecap="round" stroke-linejoin="round"/></g></g><g id="3oDLeghNcdf"><g transform="translate(250 790)"><path d="M 20,40 L 20,40 L 20,40 A 20 20 0 0 1 0 20.000000000000004 L 0,20 L 0,20.000000000000004 A 20 20 0 0 1 20 0 L 80,0 L 80,0 L 80,0 A 20 20 0 0 1 100 20 L 100,20 L 100,20 A 20 20 0 0 1 80 40 L 20,40 Z" fill="rgb(150,209,171)" stroke="#96d1ab" stroke-width="2" stroke-linecap="round" stroke-linejoin="round" stroke-dasharray="0 0"/></g><g transform="translate(260, 800.5) rotate(0, 40, 9.5)" width="80" height="19"><text text-decoration="none" x="1.5" fill="#ffffff" font-size="10pt" font-family="lt_regular"  y="15">Call-to-action</text><text text-decoration="none" x="78.5" fill="#4b4b4b" font-size="10pt" font-family="noto_regular"  y="15"></text></g></g><g id="zuAwb7GvHgD"><g><path d="M 410,810 C 360,810 400,810 350,810" fill="none" stroke="#7E7E7E" stroke-width="2" stroke-linecap="round" stroke-linejoin="round"/></g></g><g id="0rrETqpv0rE"><g transform="translate(250 840)"><path d="M 20,40 L 20,40 L 20,40 A 20 20 0 0 1 0 20.000000000000004 L 0,20 L 0,20.000000000000004 A 20 20 0 0 1 20 0 L 80,0 L 80,0 L 80,0 A 20 20 0 0 1 100 20 L 100,20 L 100,20 A 20 20 0 0 1 80 40 L 20,40 Z" fill="rgb(150,209,171)" stroke="#96d1ab" stroke-width="2" stroke-linecap="round" stroke-linejoin="round" stroke-dasharray="0 0"/></g><g transform="translate(269.5, 850.5) rotate(0, 30.5, 9.5)" width="61" height="19"><text text-decoration="none" x="1" fill="#ffffff" font-size="10pt" font-family="lt_regular"  y="15">Sales&#160;</text><text text-decoration="none" x="33" fill="#ffffff" font-size="10pt" font-family="lt_regular"  y="15">copy</text><text text-decoration="none" x="60" fill="#4b4b4b" font-size="10pt" font-family="noto_regular"  y="15"></text></g></g><g id="bfCkhpndSOP"><g><path d="M 410,810 C 360,810 400,860 350,860" fill="none" stroke="#7E7E7E" stroke-width="2" stroke-linecap="round" stroke-linejoin="round"/></g></g></svg>