<?xml version="1.0" encoding="utf-8"?>
<!-- Generator: Adobe Illustrator 21.1.0, SVG Export Plug-In . SVG Version: 6.00 Build 0)  -->
<svg version="1.1" id="Слой_1" xmlns="http://www.w3.org/2000/svg" xmlns:xlink="http://www.w3.org/1999/xlink" x="0px" y="0px"
	 viewBox="0 0 1245.2 1562.1" style="enable-background:new 0 0 1245.2 1562.1;" xml:space="preserve">
<style type="text/css">
	.st0{fill:none;stroke:#C0C0C0;stroke-width:3;stroke-linejoin:round;stroke-miterlimit:10;}
	.st1{fill:#C0C0C0;stroke:#C0C0C0;stroke-width:0.75;stroke-linejoin:round;stroke-miterlimit:10;}
	.st2{fill:#F4F4F4;stroke:#333333;stroke-width:3;stroke-linejoin:round;stroke-miterlimit:10;}
	.st3{fill:#E2E2E2;stroke:#333333;stroke-width:3;stroke-linejoin:round;stroke-miterlimit:10;}
	.st4{fill:#FCEB00;stroke:#333333;stroke-width:3;stroke-linejoin:round;stroke-miterlimit:10;}
	.st5{fill:#FFFFFF;stroke:#333333;stroke-width:3;stroke-linejoin:round;stroke-miterlimit:10;}
	.st6{fill:#333333;stroke:#333333;stroke-width:3;stroke-linejoin:round;stroke-miterlimit:10;}
	.st7{fill:#FF9887;stroke:#333333;stroke-width:3;stroke-linejoin:round;stroke-miterlimit:10;}
	.st8{fill:#333333;}
	.st9{fill:none;stroke:#333333;stroke-width:3;stroke-linejoin:round;stroke-miterlimit:10;}
	.st10{fill:#E2E2E2;stroke:#333333;stroke-width:4;stroke-linejoin:round;stroke-miterlimit:10;}
	.st11{fill:#F4F4F4;stroke:#333333;stroke-width:4;stroke-linejoin:round;stroke-miterlimit:10;}
	.st12{fill:#FFFFFF;stroke:#333333;stroke-width:4;stroke-linejoin:round;stroke-miterlimit:10;}
	.st13{fill:#333333;stroke:#333333;stroke-width:4;stroke-linejoin:round;stroke-miterlimit:10;}
	.st14{fill:#F4F4F4;stroke:#333333;stroke-width:2.5;stroke-linejoin:round;stroke-miterlimit:10;}
	.st15{fill:#CBCBCB;stroke:#333333;stroke-width:2.5;stroke-linejoin:round;stroke-miterlimit:10;}
	.st16{fill:#FFFFFF;stroke:#333333;stroke-width:2.5;stroke-linejoin:round;stroke-miterlimit:10;}
	.st17{fill:none;stroke:#333333;stroke-width:2.5;stroke-linejoin:round;stroke-miterlimit:10;}
	.st18{fill:#1098FF;stroke:#333333;stroke-width:2.5;stroke-linejoin:round;stroke-miterlimit:10;}
	.st19{fill:#FF9887;stroke:#333333;stroke-width:2.5;stroke-linejoin:round;stroke-miterlimit:10;}
	.st20{fill:#FFD5CE;stroke:#333333;stroke-width:2;stroke-linejoin:round;stroke-miterlimit:10;}
	.st21{fill:#FF9887;stroke:#333333;stroke-width:2;stroke-linejoin:round;stroke-miterlimit:10;}
	.st22{fill:none;stroke:#333333;stroke-width:2;stroke-linejoin:round;stroke-miterlimit:10;}
	.st23{fill:#333333;stroke:#333333;stroke-width:2;stroke-linejoin:round;stroke-miterlimit:10;}
	.st24{fill:#EBF6FA;stroke:#333333;stroke-width:2;stroke-linejoin:round;stroke-miterlimit:10;}
	.st25{fill:none;stroke:#C0C0C0;stroke-width:4;stroke-linejoin:round;stroke-miterlimit:10;}
	.st26{fill:#FFD5CE;stroke:#333333;stroke-width:3;stroke-linejoin:round;stroke-miterlimit:10;}
	.st27{fill:#363636;stroke:#363636;stroke-width:3;stroke-linejoin:round;stroke-miterlimit:10;}
	.st28{fill:none;stroke:#363636;stroke-width:3;stroke-linejoin:round;stroke-miterlimit:10;}
	.st29{fill:#F3D4CD;stroke:#363636;stroke-width:3;stroke-linejoin:round;stroke-miterlimit:10;}
	.st30{fill:#4172B5;stroke:#363636;stroke-width:3;stroke-linejoin:round;stroke-miterlimit:10;}
	.st31{fill:#F2F2F2;stroke:#333333;stroke-width:3;stroke-linejoin:round;stroke-miterlimit:10;}
	.st32{fill:#FFFFFF;}
	.st33{fill:none;stroke:#333333;stroke-width:4;stroke-linejoin:round;stroke-miterlimit:10;}
	.st34{fill:#1098FF;stroke:#333333;stroke-width:4;stroke-linejoin:round;stroke-miterlimit:10;}
	.st35{fill:#1098FF;stroke:#333333;stroke-width:3;stroke-linejoin:round;stroke-miterlimit:10;}
	.st36{fill:#D6F1FF;stroke:#333333;stroke-width:3;stroke-linejoin:round;stroke-miterlimit:10;}
	.st37{fill:#D6F1FF;stroke:#333333;stroke-width:2.5;stroke-linejoin:round;stroke-miterlimit:10;}
	.st38{fill:#C0C0C0;stroke:#C0C0C0;stroke-width:4;stroke-linejoin:round;stroke-miterlimit:10;}
	.st39{fill:#D6F1FF;stroke:#333333;stroke-width:4;stroke-linejoin:round;stroke-miterlimit:10;}
	.st40{fill:#FF9887;stroke:#333333;stroke-width:4;stroke-linejoin:round;stroke-miterlimit:10;}
</style>
<g>
	<path class="st25" d="M1208,66.6v-11c0-10.4-8.4-18.8-18.8-18.8H756.6c-10.4,0-18.8,8.4-18.8,18.8v11L1208,66.6z"/>
	<circle class="st38" cx="754.4" cy="51.8" r="4.1"/>
	<circle class="st38" cx="773.7" cy="51.8" r="4.1"/>
	<circle class="st38" cx="793" cy="51.8" r="4.1"/>
	<rect x="737.8" y="66.6" class="st25" width="470.3" height="257.3"/>
	<line class="st25" x1="891.6" y1="145.9" x2="1048.8" y2="145.9"/>
	<line class="st25" x1="850.2" y1="170.6" x2="1090.2" y2="170.6"/>
	<rect x="934.8" y="211.2" class="st25" width="70.9" height="23.3"/>
</g>
<line class="st25" x1="1208" y1="323.8" x2="1208" y2="1315.5"/>
<g>
	<path class="st39" d="M574.8,286.5l245.1-76.6c0,0,29.6,146.7,144.4,353.6L728.7,668.2C728.7,668.2,620.7,511,574.8,286.5z"/>
	<path class="st39" d="M757.6,611.4c0,0-91.3-140.9-121.1-286.6l70.5-23.6c0,0,31,138.1,122.8,279.9"/>
	<line class="st39" x1="649.2" y1="375.3" x2="721.1" y2="350.7"/>
	<line class="st39" x1="667.1" y1="428.8" x2="725" y2="407.4"/>
	<line class="st39" x1="698.1" y1="501.9" x2="769.7" y2="472.9"/>
	
		<rect x="686.5" y="532.6" transform="matrix(0.8238 0.5668 -0.5668 0.8238 470.5829 -285.4875)" class="st13" width="16.2" height="163.6"/>
	<polygon class="st12" points="734.3,542.4 757.7,522.6 747.6,551.5 	"/>
</g>
<line class="st25" x1="1208" y1="626.1" x2="914.2" y2="626.1"/>
<line class="st33" x1="914.2" y1="720.3" x2="1144.3" y2="720.3"/>
<line class="st33" x1="914.2" y1="748.7" x2="1144.3" y2="748.7"/>
<line class="st33" x1="914.2" y1="777" x2="1141.3" y2="777"/>
<line class="st33" x1="914.2" y1="804.6" x2="1039.9" y2="806.3"/>
<line class="st33" x1="1047.1" y1="792.8" x2="1047.1" y2="819.7"/>
<circle class="st33" cx="797.2" cy="1063.5" r="136.8"/>
<line class="st33" x1="797.2" y1="900" x2="797.2" y2="953.5"/>
<line class="st33" x1="797.2" y1="1173.5" x2="797.2" y2="1227.1"/>
<line class="st33" x1="960.7" y1="1063.5" x2="907.2" y2="1063.5"/>
<line class="st33" x1="687.2" y1="1063.5" x2="633.6" y2="1063.5"/>
<path class="st33" d="M753.3,1053.5c-2.7,19.1,7.4,77.1,31,95.2c8.3,3.6,46.4-12.4,55.3-23c0,0,7.7-13.1,9.9-22.6
	c0,0,11.7,12.3,16.3-23.5c3.6-28.7-16.4-6.7-16.4-6.7"/>
<path class="st33" d="M862.6,1064.9c14.1-61.4-19.7-68-19.7-68s-30.4-34.4-77-10.6c-30.9,14.9-37.8,50.9-37.8,50.9l21.2-20.8
	c0,0-14.7,17.6-15.4,52.4c0,0,67.4-55.7,76.3-56.3l-27.5,33c0,0,31.6-9,45.5-18.9c0,0,19.2,22.7,7.1,52.5"/>
<path class="st10" d="M534.5,1089.3v-11c0-10.4-8.4-18.8-18.8-18.8H83.1c-10.4,0-18.8,8.4-18.8,18.8v11L534.5,1089.3z"/>
<circle class="st13" cx="80.9" cy="1074.5" r="4.1"/>
<circle class="st13" cx="100.2" cy="1074.5" r="4.1"/>
<circle class="st13" cx="119.5" cy="1074.5" r="4.1"/>
<path class="st11" d="M516.8,1346.6H82c-9.8,0-17.7-7.9-17.7-17.7v-239.5h470.3v239.5C534.5,1338.6,526.6,1346.6,516.8,1346.6z"/>
<path class="st10" d="M586.3,1137.5v-11c0-10.4-8.4-18.8-18.8-18.8H134.9c-10.4,0-18.8,8.4-18.8,18.8v11L586.3,1137.5z"/>
<circle class="st13" cx="132.7" cy="1122.7" r="4.1"/>
<circle class="st13" cx="152" cy="1122.7" r="4.1"/>
<circle class="st13" cx="171.2" cy="1122.7" r="4.1"/>
<path class="st40" d="M568.6,1394.7H133.7c-9.8,0-17.7-7.9-17.7-17.7v-239.5h470.3V1377C586.3,1386.8,578.4,1394.7,568.6,1394.7z"/>
<line class="st40" x1="269.9" y1="1220.8" x2="427.1" y2="1220.8"/>
<line class="st40" x1="228.5" y1="1245.5" x2="468.5" y2="1245.5"/>
<rect x="313.1" y="1286.2" class="st13" width="70.9" height="23.3"/>
<path class="st25" d="M649.2,588.6c0,0-276.2,295.8-195.7,376.2c52.3,52.3,184.2-97.3,233.7-145.2c150.8-145.8,230.8-181,273.6-124"
	/>
<path class="st25" d="M948,833.5c0,0-10.3,27.1-60.7,93.3"/>
<path class="st25" d="M694.4,1185.4c0,0-28,32.1-81.9,78.3"/>
<g>
	<path class="st12" d="M356.1,1394.3c0,0-12.9-26.9-47.7-19.3c-39.9,8.7-80.6,59.1-80.6,59.1S335.5,1449.5,356.1,1394.3z"/>
	<path class="st13" d="M335.9,1390.4c0.5,12-8.8,22.1-20.8,22.6c-12,0.5-22.1-8.8-22.6-20.8c-0.2-5,1.3-9.6,3.9-13.4
		c0,0,8.7-4,18.1-5.1c6.9-0.8,13.2,0.5,13.2,0.5C332.7,1377.8,335.7,1383.8,335.9,1390.4z"/>
	
		<ellipse transform="matrix(0.9793 -0.2022 0.2022 0.9793 -272.9361 93.1871)" class="st32" cx="319.6" cy="1382.4" rx="5.7" ry="5.7"/>
	
		<ellipse transform="matrix(0.9793 -0.2022 0.2022 0.9793 -275.4435 91.4839)" class="st32" cx="310" cy="1393.9" rx="3.4" ry="3.4"/>
	<path class="st33" d="M354.6,1379c0,0-15.9-19.5-42.4-16c-20.1,2.6-46.1,8.2-84.3,53.6"/>
	<path class="st12" d="M162.8,1449.5c0,0-20.3-23.7-60.2-13.2c-50.9,13.4-76.1,56.8-76.1,56.8S128.6,1513.1,162.8,1449.5z"/>
	<path class="st33" d="M160.1,1436.1c0,0-24.3-20.2-58.4-13.2c-53.5,11-84.4,56.6-84.4,56.6"/>
	<path class="st13" d="M136.9,1453.6c-0.7,12-11,21.1-23,20.4s-21.1-11-20.4-23c0.3-5,2.2-9.4,5.2-12.9c0,0,9.1-3.1,18.5-3.2
		c7-0.1,13,1.8,13,1.8C134.9,1440.8,137.3,1447.1,136.9,1453.6z"/>
	
		<ellipse transform="matrix(0.9948 -0.1021 0.1021 0.9948 -146.6151 19.9979)" class="st32" cx="122.1" cy="1442.5" rx="5.7" ry="5.7"/>
	
		<ellipse transform="matrix(0.9948 -0.1021 0.1021 0.9948 -147.7588 18.9625)" class="st32" cx="111.4" cy="1453.1" rx="3.4" ry="3.4"/>
	<path class="st33" d="M38.8,1506.6c0,0,38.4,7,84.3-11"/>
</g>
</svg>
